<svg xmlns="http://www.w3.org/2000/svg" width="50" height="50" viewBox="0 0 50 50">
  <g id="Group_86" data-name="Group 86" transform="translate(0 -0.266)">
    <circle id="Ellipse_39" data-name="Ellipse 39" cx="25" cy="25" r="25" transform="translate(0 0.266)" fill="#e76f51"/>
    <g id="logo" transform="translate(-68.958 314.416)">
      <path id="Path_959" data-name="Path 959" d="M86.809-304.249,84-302.61v11.886h5.907v-7.595c0-6-.036-7.595-.145-7.583C89.678-305.888,88.34-305.153,86.809-304.249Z" transform="translate(0 0)" fill="#fff"/>
      <path id="Path_960" data-name="Path 960" d="M93.631-227.6c-.2.06-.217.3-.217,2.881a20.706,20.706,0,0,0,.1,2.869c.048.036,1.3.1,2.8.145,2.6.084,2.724.1,3.17.386.868.555.928.832.928,4.629,0,3.255-.012,3.339-.277,3.858-.53,1-.579,1.013-4.906,1.013-3.6,0-3.821-.012-4.219-.241-.832-.494-.892-.759-.964-3.8l-.06-2.712H84.192l-.036,2.8c-.036,3.291.072,4.038.832,5.581a7.975,7.975,0,0,0,3.5,3.472c1.664.8,1.808.808,6.92.808,4.46-.012,4.605-.012,5.364-.289a8.329,8.329,0,0,0,5.268-5.377c.193-.651.217-1.193.217-5.123s-.024-4.472-.217-5.123a8.425,8.425,0,0,0-4.424-5.087c-1.037-.47-2.1-.615-5-.687C95.09-227.634,93.74-227.634,93.631-227.6Z" transform="translate(-0.132 -68.839)" fill="#fff"/>
    </g>
  </g>
</svg>
